<?xml version="1.0" encoding="utf-8"?>
<!-- Generator: Adobe Illustrator 26.0.1, SVG Export Plug-In . SVG Version: 6.00 Build 0)  -->
<svg version="1.1" id="Camada_1" xmlns="http://www.w3.org/2000/svg" xmlns:xlink="http://www.w3.org/1999/xlink" x="0px" y="0px"
	 viewBox="0 0 1920 1080" style="enable-background:new 0 0 1920 1080;" xml:space="preserve">
<style type="text/css">
	.st0{fill:#1A1A1A;}
	.st1{fill:#FFFFFF;}
	.st2{fill:url(#SVGID_1_);}
	.st3{fill:url(#SVGID_00000133529376703205559180000006515413752246803359_);}
	.st4{fill:url(#SVGID_00000059304200888590380530000010315882577530880667_);}
	.st5{fill:url(#SVGID_00000115477907263745535770000012427121045359916683_);}
	.st6{fill:url(#SVGID_00000141425718791098483520000006505898006144308898_);}
	.st7{fill:url(#SVGID_00000086671751284019977060000009171005953416999845_);}
	.st8{fill:url(#SVGID_00000129912998525108090940000000231065748579746488_);}
	.st9{fill:url(#SVGID_00000160160190769730136040000000546368030899284131_);}
	.st10{fill:url(#SVGID_00000174570803995530845830000004464514027025347005_);}
	.st11{fill:url(#SVGID_00000107562757477725464190000014130398609874093242_);}
	.st12{fill:url(#SVGID_00000036233201165256108160000002493449742164716197_);}
	.st13{fill:url(#SVGID_00000096781036065128666650000005026590222106586031_);}
</style>
<g>
	<g>
		
			<linearGradient id="SVGID_1_" gradientUnits="userSpaceOnUse" x1="1253.0847" y1="-186.553" x2="1522.9153" y2="-186.553" gradientTransform="matrix(1 0 0 -1 0 161.947)">
			<stop  offset="0" style="stop-color:#35A8E0"/>
			<stop  offset="1" style="stop-color:#1D70B7"/>
		</linearGradient>
		<path class="st2" d="M1285.46,307.15l-32.38,49.61c4.03,2.64,40.46,25.8,77.15,25.8c17.55,0,36.97-4.38,55.74-8.62
			c16.34-3.69,33.25-7.51,45.45-7.51c15.22,0,44.65,13.7,60.68,23.42l30.81-50.6c-8.79-5.36-54.48-32.07-91.49-32.07
			c-18.81,0-38.98,4.55-58.5,8.96c-15.6,3.52-31.74,7.17-42.69,7.17C1314.11,323.31,1291.95,311.34,1285.46,307.15z"/>
		
			<linearGradient id="SVGID_00000031169001229627272340000002623119418495402910_" gradientUnits="userSpaceOnUse" x1="558.0848" y1="-186.553" x2="827.9152" y2="-186.553" gradientTransform="matrix(1 0 0 -1 0 161.947)">
			<stop  offset="0" style="stop-color:#35A8E0"/>
			<stop  offset="1" style="stop-color:#1D70B7"/>
		</linearGradient>
		<path style="fill:url(#SVGID_00000031169001229627272340000002623119418495402910_);" d="M590.46,307.15l-32.38,49.61
			c4.03,2.64,40.46,25.8,77.15,25.8c17.55,0,36.97-4.38,55.74-8.62c16.34-3.69,33.25-7.51,45.45-7.51
			c15.22,0,44.65,13.7,60.68,23.42l30.81-50.6c-8.79-5.36-54.48-32.07-91.49-32.07c-18.81,0-38.98,4.55-58.5,8.96
			c-15.6,3.52-31.74,7.17-42.69,7.17C619.11,323.31,596.95,311.34,590.46,307.15z"/>
		
			<linearGradient id="SVGID_00000092437619865791386290000006204957610860240768_" gradientUnits="userSpaceOnUse" x1="905.5848" y1="-186.553" x2="1175.4153" y2="-186.553" gradientTransform="matrix(1 0 0 -1 0 161.947)">
			<stop  offset="0" style="stop-color:#35A8E0"/>
			<stop  offset="1" style="stop-color:#1D70B7"/>
		</linearGradient>
		<path style="fill:url(#SVGID_00000092437619865791386290000006204957610860240768_);" d="M937.96,307.15l-32.38,49.61
			c4.03,2.64,40.46,25.8,77.15,25.8c17.55,0,36.97-4.38,55.74-8.62c16.34-3.69,33.25-7.51,45.45-7.51
			c15.22,0,44.65,13.7,60.68,23.42l30.81-50.6c-8.79-5.36-54.48-32.07-91.49-32.07c-18.81,0-38.98,4.55-58.5,8.96
			c-15.6,3.52-31.75,7.17-42.69,7.17C966.61,323.31,944.45,311.34,937.96,307.15z"/>
	</g>
	<g>
		
			<linearGradient id="SVGID_00000032623597464765133720000002244726692486982307_" gradientUnits="userSpaceOnUse" x1="1092.0847" y1="-308.553" x2="1361.9153" y2="-308.553" gradientTransform="matrix(1 0 0 -1 0 161.947)">
			<stop  offset="0" style="stop-color:#35A8E0"/>
			<stop  offset="1" style="stop-color:#1D70B7"/>
		</linearGradient>
		<path style="fill:url(#SVGID_00000032623597464765133720000002244726692486982307_);" d="M1124.46,429.15l-32.38,49.61
			c4.03,2.64,40.46,25.8,77.15,25.8c17.55,0,36.97-4.38,55.74-8.62c16.34-3.69,33.25-7.51,45.45-7.51
			c15.22,0,44.65,13.7,60.68,23.42l30.81-50.6c-8.79-5.36-54.48-32.07-91.49-32.07c-18.81,0-38.98,4.55-58.5,8.96
			c-15.6,3.52-31.74,7.17-42.69,7.17C1153.11,445.31,1130.95,433.34,1124.46,429.15z"/>
		
			<linearGradient id="SVGID_00000116917505095104985450000000365928446993990310_" gradientUnits="userSpaceOnUse" x1="397.0848" y1="-308.553" x2="666.9152" y2="-308.553" gradientTransform="matrix(1 0 0 -1 0 161.947)">
			<stop  offset="0" style="stop-color:#35A8E0"/>
			<stop  offset="1" style="stop-color:#1D70B7"/>
		</linearGradient>
		<path style="fill:url(#SVGID_00000116917505095104985450000000365928446993990310_);" d="M429.46,429.15l-32.38,49.61
			c4.03,2.64,40.46,25.8,77.15,25.8c17.55,0,36.97-4.38,55.74-8.62c16.34-3.69,33.25-7.51,45.45-7.51
			c15.22,0,44.65,13.7,60.68,23.42l30.81-50.6c-8.79-5.36-54.48-32.07-91.49-32.07c-18.81,0-38.98,4.55-58.5,8.96
			c-15.6,3.52-31.74,7.17-42.69,7.17C458.11,445.31,435.95,433.34,429.46,429.15z"/>
		
			<linearGradient id="SVGID_00000016054122257656031330000013535702827945486263_" gradientUnits="userSpaceOnUse" x1="744.5848" y1="-308.553" x2="1014.4152" y2="-308.553" gradientTransform="matrix(1 0 0 -1 0 161.947)">
			<stop  offset="0" style="stop-color:#35A8E0"/>
			<stop  offset="1" style="stop-color:#1D70B7"/>
		</linearGradient>
		<path style="fill:url(#SVGID_00000016054122257656031330000013535702827945486263_);" d="M776.96,429.15l-32.38,49.61
			c4.03,2.64,40.46,25.8,77.15,25.8c17.55,0,36.97-4.38,55.74-8.62c16.34-3.69,33.25-7.51,45.45-7.51
			c15.22,0,44.65,13.7,60.68,23.42l30.81-50.6c-8.79-5.36-54.48-32.07-91.49-32.07c-18.81,0-38.98,4.55-58.5,8.96
			c-15.6,3.52-31.74,7.17-42.69,7.17C805.61,445.31,783.45,433.34,776.96,429.15z"/>
	</g>
	<g>
		
			<linearGradient id="SVGID_00000127745277218629405200000005014718236286901394_" gradientUnits="userSpaceOnUse" x1="1253.0847" y1="-447.553" x2="1522.9153" y2="-447.553" gradientTransform="matrix(1 0 0 -1 0 161.947)">
			<stop  offset="0" style="stop-color:#35A8E0"/>
			<stop  offset="1" style="stop-color:#1D70B7"/>
		</linearGradient>
		<path style="fill:url(#SVGID_00000127745277218629405200000005014718236286901394_);" d="M1285.46,568.15l-32.38,49.61
			c4.03,2.64,40.46,25.8,77.15,25.8c17.55,0,36.97-4.38,55.74-8.62c16.34-3.69,33.25-7.51,45.45-7.51
			c15.22,0,44.65,13.7,60.68,23.42l30.81-50.6c-8.79-5.36-54.48-32.07-91.49-32.07c-18.81,0-38.98,4.55-58.5,8.96
			c-15.6,3.52-31.74,7.17-42.69,7.17C1314.11,584.31,1291.95,572.34,1285.46,568.15z"/>
		
			<linearGradient id="SVGID_00000062150711798831987960000000543648904703617941_" gradientUnits="userSpaceOnUse" x1="558.0848" y1="-447.553" x2="827.9152" y2="-447.553" gradientTransform="matrix(1 0 0 -1 0 161.947)">
			<stop  offset="0" style="stop-color:#35A8E0"/>
			<stop  offset="1" style="stop-color:#1D70B7"/>
		</linearGradient>
		<path style="fill:url(#SVGID_00000062150711798831987960000000543648904703617941_);" d="M590.46,568.15l-32.38,49.61
			c4.03,2.64,40.46,25.8,77.15,25.8c17.55,0,36.97-4.38,55.74-8.62c16.34-3.69,33.25-7.51,45.45-7.51
			c15.22,0,44.65,13.7,60.68,23.42l30.81-50.6c-8.79-5.36-54.48-32.07-91.49-32.07c-18.81,0-38.98,4.55-58.5,8.96
			c-15.6,3.52-31.74,7.17-42.69,7.17C619.11,584.31,596.95,572.34,590.46,568.15z"/>
		
			<linearGradient id="SVGID_00000163072006320604894540000009814292883399739050_" gradientUnits="userSpaceOnUse" x1="905.5848" y1="-447.553" x2="1175.4153" y2="-447.553" gradientTransform="matrix(1 0 0 -1 0 161.947)">
			<stop  offset="0" style="stop-color:#35A8E0"/>
			<stop  offset="1" style="stop-color:#1D70B7"/>
		</linearGradient>
		<path style="fill:url(#SVGID_00000163072006320604894540000009814292883399739050_);" d="M937.96,568.15l-32.38,49.61
			c4.03,2.64,40.46,25.8,77.15,25.8c17.55,0,36.97-4.38,55.74-8.62c16.34-3.69,33.25-7.51,45.45-7.51
			c15.22,0,44.65,13.7,60.68,23.42l30.81-50.6c-8.79-5.36-54.48-32.07-91.49-32.07c-18.81,0-38.98,4.55-58.5,8.96
			c-15.6,3.52-31.75,7.17-42.69,7.17C966.61,584.31,944.45,572.34,937.96,568.15z"/>
	</g>
	<g>
		
			<linearGradient id="SVGID_00000024713680059395288310000009621786874723936908_" gradientUnits="userSpaceOnUse" x1="1092.0847" y1="-569.553" x2="1361.9153" y2="-569.553" gradientTransform="matrix(1 0 0 -1 0 161.947)">
			<stop  offset="0" style="stop-color:#35A8E0"/>
			<stop  offset="1" style="stop-color:#1D70B7"/>
		</linearGradient>
		<path style="fill:url(#SVGID_00000024713680059395288310000009621786874723936908_);" d="M1124.46,690.15l-32.38,49.61
			c4.03,2.64,40.46,25.8,77.15,25.8c17.55,0,36.97-4.38,55.74-8.62c16.34-3.69,33.25-7.51,45.45-7.51
			c15.22,0,44.65,13.7,60.68,23.42l30.81-50.6c-8.79-5.36-54.48-32.07-91.49-32.07c-18.81,0-38.98,4.55-58.5,8.96
			c-15.6,3.52-31.74,7.17-42.69,7.17C1153.11,706.31,1130.95,694.34,1124.46,690.15z"/>
		
			<linearGradient id="SVGID_00000060732878858495809500000005425200323295673226_" gradientUnits="userSpaceOnUse" x1="397.0848" y1="-569.553" x2="666.9152" y2="-569.553" gradientTransform="matrix(1 0 0 -1 0 161.947)">
			<stop  offset="0" style="stop-color:#35A8E0"/>
			<stop  offset="1" style="stop-color:#1D70B7"/>
		</linearGradient>
		<path style="fill:url(#SVGID_00000060732878858495809500000005425200323295673226_);" d="M429.46,690.15l-32.38,49.61
			c4.03,2.64,40.46,25.8,77.15,25.8c17.55,0,36.97-4.38,55.74-8.62c16.34-3.69,33.25-7.51,45.45-7.51
			c15.22,0,44.65,13.7,60.68,23.42l30.81-50.6c-8.79-5.36-54.48-32.07-91.49-32.07c-18.81,0-38.98,4.55-58.5,8.96
			c-15.6,3.52-31.74,7.17-42.69,7.17C458.11,706.31,435.95,694.34,429.46,690.15z"/>
		
			<linearGradient id="SVGID_00000081624191790735034660000017643282589798226564_" gradientUnits="userSpaceOnUse" x1="744.5848" y1="-569.553" x2="1014.4152" y2="-569.553" gradientTransform="matrix(1 0 0 -1 0 161.947)">
			<stop  offset="0" style="stop-color:#35A8E0"/>
			<stop  offset="1" style="stop-color:#1D70B7"/>
		</linearGradient>
		<path style="fill:url(#SVGID_00000081624191790735034660000017643282589798226564_);" d="M776.96,690.15l-32.38,49.61
			c4.03,2.64,40.46,25.8,77.15,25.8c17.55,0,36.97-4.38,55.74-8.62c16.34-3.69,33.25-7.51,45.45-7.51
			c15.22,0,44.65,13.7,60.68,23.42l30.81-50.6c-8.79-5.36-54.48-32.07-91.49-32.07c-18.81,0-38.98,4.55-58.5,8.96
			c-15.6,3.52-31.74,7.17-42.69,7.17C805.61,706.31,783.45,694.34,776.96,690.15z"/>
	</g>
</g>
</svg>
