<?xml version="1.0" encoding="utf-8"?>
<!-- Generator: Adobe Illustrator 26.0.1, SVG Export Plug-In . SVG Version: 6.00 Build 0)  -->
<svg version="1.1" id="Camada_1" xmlns="http://www.w3.org/2000/svg" xmlns:xlink="http://www.w3.org/1999/xlink" x="0px" y="0px"
	 viewBox="0 0 1920 1080" style="enable-background:new 0 0 1920 1080;" xml:space="preserve">
<style type="text/css">
	.st0{fill:#1A1A1A;}
	.st1{fill:#FFFFFF;}
	.st2{fill:url(#SVGID_1_);}
	.st3{fill:url(#SVGID_00000016050570962022841940000006038427348235906962_);}
	.st4{fill:url(#SVGID_00000182486822632262301160000006754371943963200158_);}
	.st5{fill:url(#SVGID_00000074438514291889059090000002835708355056295821_);}
	.st6{fill:url(#SVGID_00000040561716996902197280000008298279821245722258_);}
	.st7{fill:url(#SVGID_00000106133382038272974900000010326491458507812998_);}
	.st8{fill:url(#SVGID_00000077305320087297148910000013624942409028876167_);}
	.st9{fill:url(#SVGID_00000041285890831518725210000017083106016350884798_);}
	.st10{fill:url(#SVGID_00000089550439907960636540000013180131083288221593_);}
	.st11{fill:url(#SVGID_00000035495708310528856380000006102610161909977500_);}
	.st12{fill:url(#SVGID_00000105384251263170566320000012645564668849683627_);}
	.st13{fill:url(#SVGID_00000047781239172376755270000017695462901875247488_);}
</style>
<g>
	<g>
		<path class="st1" d="M1285.46,307.15l-32.38,49.61c4.03,2.64,40.46,25.8,77.15,25.8c17.55,0,36.97-4.38,55.74-8.62
			c16.34-3.69,33.25-7.51,45.45-7.51c15.22,0,44.65,13.7,60.68,23.42l30.81-50.6c-8.79-5.36-54.48-32.07-91.49-32.07
			c-18.81,0-38.98,4.55-58.5,8.96c-15.6,3.52-31.74,7.17-42.69,7.17C1314.11,323.31,1291.95,311.34,1285.46,307.15z"/>
		<path class="st1" d="M590.46,307.15l-32.38,49.61c4.03,2.64,40.46,25.8,77.15,25.8c17.55,0,36.97-4.38,55.74-8.62
			c16.34-3.69,33.25-7.51,45.45-7.51c15.22,0,44.65,13.7,60.68,23.42l30.81-50.6c-8.79-5.36-54.48-32.07-91.49-32.07
			c-18.81,0-38.98,4.55-58.5,8.96c-15.6,3.52-31.74,7.17-42.69,7.17C619.11,323.31,596.95,311.34,590.46,307.15z"/>
		<path class="st1" d="M937.96,307.15l-32.38,49.61c4.03,2.64,40.46,25.8,77.15,25.8c17.55,0,36.97-4.38,55.74-8.62
			c16.34-3.69,33.25-7.51,45.45-7.51c15.22,0,44.65,13.7,60.68,23.42l30.81-50.6c-8.79-5.36-54.48-32.07-91.49-32.07
			c-18.81,0-38.98,4.55-58.5,8.96c-15.6,3.52-31.75,7.17-42.69,7.17C966.61,323.31,944.45,311.34,937.96,307.15z"/>
	</g>
	<g>
		<path class="st1" d="M1124.46,429.15l-32.38,49.61c4.03,2.64,40.46,25.8,77.15,25.8c17.55,0,36.97-4.38,55.74-8.62
			c16.34-3.69,33.25-7.51,45.45-7.51c15.22,0,44.65,13.7,60.68,23.42l30.81-50.6c-8.79-5.36-54.48-32.07-91.49-32.07
			c-18.81,0-38.98,4.55-58.5,8.96c-15.6,3.52-31.74,7.17-42.69,7.17C1153.11,445.31,1130.95,433.34,1124.46,429.15z"/>
		<path class="st1" d="M429.46,429.15l-32.38,49.61c4.03,2.64,40.46,25.8,77.15,25.8c17.55,0,36.97-4.38,55.74-8.62
			c16.34-3.69,33.25-7.51,45.45-7.51c15.22,0,44.65,13.7,60.68,23.42l30.81-50.6c-8.79-5.36-54.48-32.07-91.49-32.07
			c-18.81,0-38.98,4.55-58.5,8.96c-15.6,3.52-31.74,7.17-42.69,7.17C458.11,445.31,435.95,433.34,429.46,429.15z"/>
		<path class="st1" d="M776.96,429.15l-32.38,49.61c4.03,2.64,40.46,25.8,77.15,25.8c17.55,0,36.97-4.38,55.74-8.62
			c16.34-3.69,33.25-7.51,45.45-7.51c15.22,0,44.65,13.7,60.68,23.42l30.81-50.6c-8.79-5.36-54.48-32.07-91.49-32.07
			c-18.81,0-38.98,4.55-58.5,8.96c-15.6,3.52-31.74,7.17-42.69,7.17C805.61,445.31,783.45,433.34,776.96,429.15z"/>
	</g>
	<g>
		<path class="st1" d="M1285.46,568.15l-32.38,49.61c4.03,2.64,40.46,25.8,77.15,25.8c17.55,0,36.97-4.38,55.74-8.62
			c16.34-3.69,33.25-7.51,45.45-7.51c15.22,0,44.65,13.7,60.68,23.42l30.81-50.6c-8.79-5.36-54.48-32.07-91.49-32.07
			c-18.81,0-38.98,4.55-58.5,8.96c-15.6,3.52-31.74,7.17-42.69,7.17C1314.11,584.31,1291.95,572.34,1285.46,568.15z"/>
		<path class="st1" d="M590.46,568.15l-32.38,49.61c4.03,2.64,40.46,25.8,77.15,25.8c17.55,0,36.97-4.38,55.74-8.62
			c16.34-3.69,33.25-7.51,45.45-7.51c15.22,0,44.65,13.7,60.68,23.42l30.81-50.6c-8.79-5.36-54.48-32.07-91.49-32.07
			c-18.81,0-38.98,4.55-58.5,8.96c-15.6,3.52-31.74,7.17-42.69,7.17C619.11,584.31,596.95,572.34,590.46,568.15z"/>
		<path class="st1" d="M937.96,568.15l-32.38,49.61c4.03,2.64,40.46,25.8,77.15,25.8c17.55,0,36.97-4.38,55.74-8.62
			c16.34-3.69,33.25-7.51,45.45-7.51c15.22,0,44.65,13.7,60.68,23.42l30.81-50.6c-8.79-5.36-54.48-32.07-91.49-32.07
			c-18.81,0-38.98,4.55-58.5,8.96c-15.6,3.52-31.75,7.17-42.69,7.17C966.61,584.31,944.45,572.34,937.96,568.15z"/>
	</g>
	<g>
		<path class="st1" d="M1124.46,690.15l-32.38,49.61c4.03,2.64,40.46,25.8,77.15,25.8c17.55,0,36.97-4.38,55.74-8.62
			c16.34-3.69,33.25-7.51,45.45-7.51c15.22,0,44.65,13.7,60.68,23.42l30.81-50.6c-8.79-5.36-54.48-32.07-91.49-32.07
			c-18.81,0-38.98,4.55-58.5,8.96c-15.6,3.52-31.74,7.17-42.69,7.17C1153.11,706.31,1130.95,694.34,1124.46,690.15z"/>
		<path class="st1" d="M429.46,690.15l-32.38,49.61c4.03,2.64,40.46,25.8,77.15,25.8c17.55,0,36.97-4.38,55.74-8.62
			c16.34-3.69,33.25-7.51,45.45-7.51c15.22,0,44.65,13.7,60.68,23.42l30.81-50.6c-8.79-5.36-54.48-32.07-91.49-32.07
			c-18.81,0-38.98,4.55-58.5,8.96c-15.6,3.52-31.74,7.17-42.69,7.17C458.11,706.31,435.95,694.34,429.46,690.15z"/>
		<path class="st1" d="M776.96,690.15l-32.38,49.61c4.03,2.64,40.46,25.8,77.15,25.8c17.55,0,36.97-4.38,55.74-8.62
			c16.34-3.69,33.25-7.51,45.45-7.51c15.22,0,44.65,13.7,60.68,23.42l30.81-50.6c-8.79-5.36-54.48-32.07-91.49-32.07
			c-18.81,0-38.98,4.55-58.5,8.96c-15.6,3.52-31.74,7.17-42.69,7.17C805.61,706.31,783.45,694.34,776.96,690.15z"/>
	</g>
</g>
</svg>
